<?xml version="1.0" encoding="utf-8"?>
<!-- Uploaded to: SVG Repo, www.svgrepo.com, Generator: SVG Repo Mixer Tools -->
<svg width="800px" height="800px" viewBox="0 -9.5 1043 1043" class="icon"  version="1.1" xmlns="http://www.w3.org/2000/svg"><path d="M540.495833 88.583333l243.775 413.733334 243.658334 413.85-490.741667-2.0125-490.7375-2.004167 247.083333-411.841667z" fill="#ED7C84" /><path d="M1037.291667 889.283333H0.004167L518.645833 16.770833 1037.291667 889.283333zM55.808333 857.5375h925.679167l-231.058333-388.804167-231.783334-389.8375-231.783333 389.841667-231.054167 388.8z" fill="#332C2B" /><path d="M855.016667 797.395833H182.279167l336.370833-608.029166 336.366667 608.029166zM236.125 765.65h565.041667L518.645833 254.954167 236.125 765.65z" fill="#332C2B" /><path d="M678.220833 696.770833H359.075l159.570833-288.454166 159.575 288.454166z m-265.275-31.75h211.4l-105.7-191.070833-105.7 191.070833z" fill="#332C2B" /></svg>