<svg id="final_svg" viewBox="387.843505859375 504.1875 290.43511962890625 63.40999984741211" xmlns="http://www.w3.org/2000/svg" xmlns:xlink="http://www.w3.org/1999/xlink" xml:space="preserve">
      <g id="tagline_group" transform="rotate(0)" opacity="1">
      <g id="text_layer_0_0" fill="rgba(2, 41, 239, 1)" transform="translate(383.1135, 475.88750000000005)">
                  <path d="M4.83 75.53L4.83 75.53L4.83 73.56Q4.83 71.49 6.90 71.49L6.90 71.49L15.28 71.49Q17.36 71.49 17.36 73.56L17.36 73.56L17.36 74.35Q17.36 78.10 18.83 79.48Q20.31 80.86 24.26 80.86L24.26 80.86L28.89 80.86Q32.74 80.86 34.27 79.38Q35.79 77.90 35.79 73.86L35.79 73.86L35.79 72.67Q35.79 69.81 33.48 68.29Q31.16 66.76 27.71 66.46Q24.26 66.17 20.26 65.33Q16.27 64.49 12.82 63.16Q9.37 61.83 7.05 57.93Q4.73 54.04 4.73 47.92L4.73 47.92L4.73 44.47Q4.73 36.78 9.07 32.54Q13.41 28.30 21.10 28.30L21.10 28.30L30.96 28.30Q38.75 28.30 43.09 32.54Q47.43 36.78 47.43 44.47L47.43 44.47L47.43 46.35Q47.43 48.42 45.36 48.42L45.36 48.42L36.98 48.42Q34.91 48.42 34.91 46.35L34.91 46.35L34.91 45.75Q34.91 41.91 33.43 40.53Q31.95 39.15 28.00 39.15L28.00 39.15L24.16 39.15Q20.12 39.15 18.69 40.68Q17.26 42.20 17.26 46.64L17.26 46.64L17.26 48.52Q17.26 53.15 25.34 53.84L25.34 53.84Q33.72 54.53 40.23 57.19L40.23 57.19Q43.68 58.67 46.00 62.47Q48.32 66.26 48.32 72.18L48.32 72.18L48.32 75.53Q48.32 83.23 43.98 87.47Q39.64 91.71 31.95 91.71L31.95 91.71L21.20 91.71Q13.51 91.71 9.17 87.47Q4.83 83.23 4.83 75.53ZM105.81 91.71L105.81 91.71L73.56 91.71Q71.49 91.71 71.49 89.63L71.49 89.63L71.49 30.37Q71.49 28.30 73.56 28.30L73.56 28.30L105.81 28.30Q107.78 28.30 107.78 30.37L107.78 30.37L107.78 37.08Q107.78 39.15 105.81 39.15L105.81 39.15L85.20 39.15Q84.01 39.15 84.01 40.23L84.01 40.23L84.01 53.05Q84.01 54.14 85.20 54.14L85.20 54.14L102.06 54.14Q104.13 54.14 104.13 56.21L104.13 56.21L104.13 62.91Q104.13 64.98 102.06 64.98L102.06 64.98L85.20 64.98Q84.01 64.98 84.01 66.07L84.01 66.07L84.01 79.77Q84.01 80.86 85.20 80.86L85.20 80.86L105.81 80.86Q107.78 80.86 107.78 82.93L107.78 82.93L107.78 89.63Q107.78 91.71 105.81 91.71ZM156.69 91.71L156.69 91.71L145.94 91.71Q138.15 91.71 133.91 87.56Q129.67 83.42 129.67 75.63L129.67 75.63L129.67 44.37Q129.67 36.58 133.91 32.44Q138.15 28.30 145.94 28.30L145.94 28.30L156.69 28.30Q164.38 28.30 168.67 32.49Q172.96 36.68 172.96 44.37L172.96 44.37L172.96 49.01Q172.96 51.18 170.79 51.18L170.79 51.18L162.51 51.18Q160.44 51.18 160.44 49.01L160.44 49.01L160.44 44.97Q160.44 41.81 159.10 40.48Q157.77 39.15 154.62 39.15L154.62 39.15L147.91 39.15Q144.86 39.15 143.52 40.48Q142.19 41.81 142.19 44.97L142.19 44.97L142.19 75.04Q142.19 78.20 143.52 79.53Q144.86 80.86 147.91 80.86L147.91 80.86L154.62 80.86Q157.77 80.86 159.10 79.53Q160.44 78.20 160.44 75.04L160.44 75.04L160.44 71.00Q160.44 68.83 162.51 68.83L162.51 68.83L170.79 68.83Q172.96 68.83 172.96 71.00L172.96 71.00L172.96 75.63Q172.96 83.32 168.67 87.51Q164.38 91.71 156.69 91.71ZM215.26 91.71L215.26 91.71L206.98 91.71Q204.81 91.71 204.81 89.63L204.81 89.63L204.81 40.23Q204.81 39.15 203.72 39.15L203.72 39.15L192.48 39.15Q190.41 39.15 190.41 37.08L190.41 37.08L190.41 30.37Q190.41 28.30 192.48 28.30L192.48 28.30L229.76 28.30Q231.83 28.30 231.83 30.37L231.83 30.37L231.83 37.08Q231.83 39.15 229.76 39.15L229.76 39.15L218.52 39.15Q217.33 39.15 217.33 40.23L217.33 40.23L217.33 89.63Q217.33 91.71 215.26 91.71ZM261.71 91.71L261.71 91.71L253.32 91.71Q251.25 91.71 251.25 89.63L251.25 89.63L251.25 30.37Q251.25 28.30 253.32 28.30L253.32 28.30L276.79 28.30Q284.48 28.30 288.82 32.54Q293.16 36.78 293.16 44.47L293.16 44.47L293.16 52.16Q293.16 63.31 284.39 66.95L284.39 66.95L284.39 67.35L294.94 89.34Q295.82 91.71 293.26 91.71L293.26 91.71L285.27 91.71Q283.50 91.71 282.71 91.31Q281.92 90.92 281.43 89.63L281.43 89.63L271.57 68.34L264.96 68.34Q263.78 68.34 263.78 69.42L263.78 69.42L263.78 89.63Q263.78 91.71 261.71 91.71ZM264.86 58.28L264.86 58.28L274.52 58.28Q277.68 58.28 279.16 56.95Q280.64 55.61 280.64 52.66L280.64 52.66L280.64 44.97Q280.64 41.91 279.16 40.53Q277.68 39.15 274.52 39.15L274.52 39.15L264.86 39.15Q263.78 39.15 263.78 40.23L263.78 40.23L263.78 57.19Q263.78 58.28 264.86 58.28Z"></path>
              </g>
    </g>
  </svg>