<?xml version="1.0" encoding="utf-8"?>
<svg version="1.1" x="0px" y="0px" viewBox="-59.242 -18.413 419.584 365.436" style="enable-background:new 0 0 301.9 315;" xmlns="http://www.w3.org/2000/svg" xmlns:bx="https://boxy-svg.com">
  <defs>
    <filter id="outline-filter-0" color-interpolation-filters="sRGB" x="-500%" y="-500%" width="1000%" height="1000%" bx:preset="outline 1 4 rgba(0,0,0,1)">
      <feMorphology in="SourceAlpha" result="dilated" operator="dilate" radius="4"/>
      <feFlood flood-color="rgba(0,0,0,1)" result="flood"/>
      <feComposite in="flood" in2="dilated" operator="in" result="outline"/>
      <feMerge>
        <feMergeNode in="outline"/>
        <feMergeNode in="SourceGraphic"/>
      </feMerge>
    </filter>
  </defs>
  <title>spy-complexity-1</title>
  <rect x="69.105" y="108.109" width="151.353" height="34.34" style="stroke: rgb(0, 0, 0); opacity: 0.6;"/>
  <g id="color_index_0" fill="#5318b8">
    <path d="M301.5,306.1l-19.7-52.5c-0.7-1.8-2.1-3.2-3.8-3.8l-38.5-14.6l-3.4-13.7c-0.6-2.2-2.3-4-4.5-4.7c-2.2-0.7-4.6-0.1-6.3,1.4 l-51.9,47.3l-13.8-32.4l72.6-30.3c2.4-1,4-3.4,4-6.1v-22.2l22.6-11.3c2.2-1.1,3.6-3.4,3.6-5.9v-32.8c0-3.6-2.9-6.6-6.5-6.6 c0,0,0,0,0,0h-19.7v-5l4.1-8.1h28.8c3.6,0,6.6-2.9,6.6-6.6c0-2.4-1.3-4.5-3.3-5.7l-43.7-25L209.7,4.7c-0.5-1.7-1.7-3.2-3.4-4 c-1.6-0.8-3.5-0.9-5.2-0.3l-50.2,18.8L100.8,0.4c-3.4-1.3-7.2,0.5-8.5,3.9c0,0.1-0.1,0.3-0.1,0.4L73.2,67.8l-43.7,25 c-3.1,1.8-4.2,5.8-2.3,9c1.2,2,3.3,3.2,5.6,3.2h28.8l4.1,8.1v5H45.9c-3.6,0-6.6,2.9-6.6,6.5c0,0,0,0,0,0v32.8 c0,2.5,1.4,4.8,3.6,5.9l22.6,11.3v22.2c0,2.6,1.6,5,4,6.1l72.8,30.3l-11.8,28.9L76.3,218c-2.8-2.3-6.9-1.9-9.2,0.9 c-0.6,0.7-1,1.5-1.2,2.3l-4,14.1l-38,14.4c-1.8,0.7-3.2,2.1-3.8,3.8L0.4,306.1c-1.3,3.4,0.5,7.2,3.8,8.4c0.7,0.3,1.5,0.4,2.3,0.4 c2.7,0,5.2-1.7,6.1-4.3L31.4,261l26-9.8l-4.6,16.1c-1,3.5,1,7.1,4.5,8.1c0.6,0.2,1.2,0.3,1.8,0.3h25.1l-5.3,31.7 c-0.6,3.6,1.8,7,5.4,7.6c3.6,0.6,7-1.8,7.6-5.4l6.6-39.4c0.6-3.6-1.8-7-5.4-7.6c-0.3-0.1-0.7-0.1-1.1-0.1H67.8l8-28l97.3,79 c2.8,2.3,6.9,1.9,9.2-0.9c2.3-2.8,1.9-6.9-0.9-9.2l-15.8-12.8l60.5-55.1l8.4,33.7h-17.8c-3.6,0-6.6,2.9-6.6,6.5 c0,0.4,0,0.9,0.1,1.3l6.6,32.8c0.6,3.1,3.3,5.3,6.4,5.3c0.4,0,0.9,0,1.3-0.1c3.5-0.7,5.9-4.1,5.2-7.7c0,0,0,0,0,0l-5-25h18.2 c3.6,0,6.6-2.9,6.6-6.6c0-0.5-0.1-1.1-0.2-1.6l-5.8-23.3l27.2,10.3l18.6,49.7c1,2.6,3.4,4.3,6.1,4.3c0.8,0,1.6-0.1,2.3-0.4 C301,313.3,302.7,309.5,301.5,306.1C301.5,306.1,301.5,306.1,301.5,306.1z M249.4,131.2v22.2l-13.1,6.6v-28.8H249.4z M102.7,15.2 l45.9,17.2c1.5,0.6,3.1,0.6,4.6,0l45.9-17.2l15.1,50.5H87.6L102.7,15.2z M80.5,78.7h140.9l23,13.1H57.5L80.5,78.7z M225.6,105 L206,144.4h-26L155.6,120c-2.6-2.6-6.7-2.6-9.3,0L122,144.4H96L76.3,105H225.6z M52.5,153.4v-22.2h13.1V160L52.5,153.4z M78.8,139.4l7.3,14.5c1.1,2.2,3.4,3.6,5.9,3.6h32.8c1.7,0,3.4-0.7,4.6-1.9l21.6-21.6l21.6,21.6c1.2,1.2,2.9,1.9,4.6,1.9H210 c2.5,0,4.8-1.4,5.9-3.6l7.3-14.5v53.1l-72.2,30.1l-72.2-30.1V139.4z M141.3,270.8l9.8-24l12,28.2l-7.9,7.2L141.3,270.8z M168.6,196.5c3.4,1.3,7.2-0.5,8.4-3.9s-0.5-7.2-3.9-8.4c-0.1,0-0.3-0.1-0.4-0.1l-19.7-6.6c-1.4-0.4-2.8-0.4-4.2,0l-19.7,6.6 c-3.4,1.3-5.1,5-3.9,8.4c1.2,3.2,4.7,5,8,4l17.6-5.9L168.6,196.5z" style="filter: url(#outline-filter-0); fill: rgb(255, 255, 255);"/>
  </g>
</svg>