<svg id="ePcxyp3LZrD1" xmlns="http://www.w3.org/2000/svg" xmlns:xlink="http://www.w3.org/1999/xlink" viewBox="0 0 300 300" shape-rendering="geometricPrecision" text-rendering="geometricPrecision"><rect width="50" height="8" rx="0" ry="0" transform="translate(50 91.003641)" fill="#0a0b41" stroke-width="0"/><rect width="50" height="8" rx="0" ry="0" transform="translate(159.295372 49.401976)" fill="#0a0b41" stroke-width="0"/><rect width="50" height="8" rx="0" ry="0" transform="translate(34.295372 132.137603)" fill="#d2dbed" stroke-width="0"/><rect width="50" height="8" rx="0" ry="0" transform="translate(34.295372 238.77477)" fill="#d2dbed" stroke-width="0"/><rect width="50" height="8" rx="0" ry="0" transform="translate(59.295372 155.560795)" fill="#0a0b41" stroke-width="0"/><rect width="50" height="8" rx="0" ry="0" transform="translate(166.892947 177.751189)" fill="#0a0b41" stroke-width="0"/><rect width="50" height="8" rx="0" ry="0" transform="translate(141.892947 109.917149)" fill="#0a0b41" stroke-width="0"/><rect width="50" height="8" rx="0" ry="0" transform="translate(59.295372 218.433576)" fill="#0a0b41" stroke-width="0"/><rect width="50" height="8" rx="0" ry="0" transform="translate(34.295372 29.217544)" fill="#d2dbed"/><rect width="100" height="8" rx="0" ry="0" transform="translate(50 49.401976)" fill="#f60052" stroke="#f11313"/><rect width="150" height="8" rx="0" ry="0" transform="translate(75 67.313566)" fill="#00e8e7" stroke-width="0"/><rect width="100" height="8" rx="0" ry="0" transform="translate(34.295372 109.917149)" fill="#f60052" stroke-width="0"/><rect width="100" height="8" rx="0" ry="0" transform="translate(109.295372 91.003641)" fill="#f60052" stroke-width="0"/><rect width="100" height="8" rx="0" ry="0" transform="translate(59.295372 177.751189)" fill="#f60052" stroke-width="0"/><rect width="150" height="8" rx="0" ry="0" transform="translate(75 197.475983)" fill="#00e8e7" stroke-width="0"/><rect width="150" height="8" rx="0" ry="0" transform="translate(116.892947 155.560795)" fill="#00e8e7"/></svg>
